<?xml version="1.0"?>

<!DOCTYPE svg PUBLIC '-//W3C//DTD SVG 1.0//EN' 'http://www.w3.org/TR/2001/REC-SVG-20010904/DTD/svg10.dtd'>
<svg fill-opacity="1" xmlns:xlink="http://www.w3.org/1999/xlink" color-rendering="auto" color-interpolation="auto" text-rendering="auto" stroke="black" stroke-linecap="square" stroke-miterlimit="10" shape-rendering="auto" stroke-opacity="1" fill="black" stroke-dasharray="none" font-weight="normal" stroke-width="1" xmlns="http://www.w3.org/2000/svg" font-family="&apos;Dialog&apos;" font-style="normal" stroke-linejoin="miter" font-size="12" stroke-dashoffset="0" image-rendering="auto">
  <!--Unicode Character 'BUS' (U+1F68C)-->
  <defs id="genericDefs" />
  <g>
    <g>
      <path d="M240.4688 267.0469 Q240.4688 276.0469 234.2109 282.0234 Q227.9531 288 218.8125 288 Q209.6719 288 203.7656 282.0938 Q197.8594 276.1875 197.8594 267.0469 Q197.8594 258.1875 204.1172 251.7891 Q210.375 245.3906 219.0938 245.3906 Q227.8125 245.3906 234.1406 251.8594 Q240.4688 258.3281 240.4688 267.0469 ZM283.7812 267.0469 Q283.7812 268.875 280.4062 271.5469 Q277.0312 274.2188 275.2031 274.2188 L246.7969 274.2188 Q246.7969 273.0938 247.0781 270.5625 Q247.3594 268.0312 247.3594 266.625 Q247.3594 255.5156 238.9219 247.2891 Q230.4844 239.0625 219.375 239.0625 Q208.5469 239.0625 199.7578 247.2188 Q190.9688 255.375 190.9688 266.2031 Q190.9688 269.7188 192.0938 273.5156 L85.6406 273.5156 Q86.2031 271.4062 86.2031 266.625 Q86.2031 255.6562 77.9062 247.3594 Q69.6094 239.0625 58.6406 239.0625 Q46.8281 239.0625 38.8125 247.3594 Q31.3594 255.2344 30.2344 267.3281 L28.2656 267.3281 Q24.4688 267.3281 18.4219 264.7969 Q11.5312 261.8438 11.5312 258.75 L11.5312 211.2188 Q11.5312 209.9531 27.5625 170.2969 Q30.0938 163.6875 32.625 157.2188 Q36.7031 148.7812 42.0469 148.7812 L273.9375 148.7812 Q276.3281 148.7812 280.0547 151.2422 Q283.7812 153.7031 283.7812 155.9531 L283.7812 267.0469 ZM79.3125 266.625 Q79.3125 275.7656 73.3359 281.8828 Q67.3594 288 58.2188 288 Q49.5 288 43.0312 281.8828 Q36.5625 275.7656 36.5625 267.0469 Q36.5625 258.4688 42.9609 251.9297 Q49.3594 245.3906 57.9375 245.3906 Q67.0781 245.3906 73.1953 251.4375 Q79.3125 257.4844 79.3125 266.625 ZM264.2344 205.7344 L264.2344 168.3281 L229.9219 168.3281 L229.9219 205.7344 L264.2344 205.7344 ZM217.125 205.7344 L217.125 168.3281 L184.0781 168.3281 L184.0781 205.7344 L217.125 205.7344 ZM171.9844 205.7344 L171.9844 168.3281 L137.6719 168.3281 L137.6719 205.7344 L171.9844 205.7344 ZM124.3125 205.7344 L124.3125 168.3281 L90 168.3281 L90 205.7344 L124.3125 205.7344 ZM77.3438 205.7344 L77.3438 168.3281 L48.6562 168.3281 L34.1719 205.7344 L77.3438 205.7344 Z" stroke="none" />
    </g>
  </g>
</svg>
