<?xml version="1.0" encoding="utf-8"?>
<!-- Svg Vector Icons : http://www.onlinewebfonts.com/icon -->
<!DOCTYPE svg PUBLIC "-//W3C//DTD SVG 1.1//EN" "http://www.w3.org/Graphics/SVG/1.1/DTD/svg11.dtd">
<svg version="1.1" xmlns="http://www.w3.org/2000/svg" xmlns:xlink="http://www.w3.org/1999/xlink" x="0px" y="0px" viewBox="0 0 1000 1000" enable-background="new 0 0 1000 1000" xml:space="preserve">
<metadata> Svg Vector Icons : http://www.onlinewebfonts.com/icon </metadata>
<g><path d="M855.7,500.8c-171.5-4.9-491.2-0.8-491.2-0.8S244.8,71.7,172.6,29.6c-104.9-61.2-216,33.5-134.3,116c141.3,142.5,225.8,570,275.2,594.9c12.7,6.5,95.5,7.8,227.4,6.5v121.3l-118,6.5c-12.2,0-22.5,10.2-22.5,22.9v69.4c0,12.7,10.2,22.9,22.5,22.9h403.4c12.2,0,22.5-10.2,22.5-22.9v-69.4c0-12.7-10.2-22.9-22.5-22.9L667,870.7l-4.5-127.8c136.8-2,234.8,14.7,280.9-14.7C1057,656.4,937.3,503.3,855.7,500.8z"/></g>
</svg>